<?xml version="1.0" encoding="UTF-8"?>
<svg width="260" height="260" viewBox="0 0 260 260" xmlns="http://www.w3.org/2000/svg">
    <defs>
        <linearGradient id="cnGradient" x1="0%" y1="0%" x2="100%" y2="100%">
            <stop offset="0%" style="stop-color:#DE2910;stop-opacity:1" />
            <stop offset="100%" style="stop-color:#FF3A1B;stop-opacity:1" />
        </linearGradient>
    </defs>
    <path d="M 50 50 L 105 50 C 105 50, 105 70, 130 70 C 155 70, 155 50, 155 50 L 210 50 L 210 105 C 210 105, 190 105, 190 130 C 190 155, 210 155, 210 155 L 210 210 L 155 210 C 155 210, 155 230, 130 230 C 105 230, 105 210, 105 210 L 50 210 L 50 155 C 50 155, 70 155, 70 130 C 70 105, 50 105, 50 105 Z"
          fill="url(#cnGradient)" stroke="white" stroke-width="3"/>
    <g transform="translate(70, 70)">
        <path d="M 0,10 L 3,3 L 10,2 L 5,-3 L 6,-10 L 0,-6 L -6,-10 L -5,-3 L -10,2 L -3,3 Z" fill="#FFDE00" transform="scale(2)"/>
    </g>
    <g transform="translate(100, 60)"><path d="M 0,5 L 1.5,1.5 L 5,1 L 2.5,-1.5 L 3,-5 L 0,-3 L -3,-5 L -2.5,-1.5 L -5,1 L -1.5,1.5 Z" fill="#FFDE00"/></g>
    <g transform="translate(110, 75)"><path d="M 0,5 L 1.5,1.5 L 5,1 L 2.5,-1.5 L 3,-5 L 0,-3 L -3,-5 L -2.5,-1.5 L -5,1 L -1.5,1.5 Z" fill="#FFDE00"/></g>
    <g transform="translate(105, 95)"><path d="M 0,5 L 1.5,1.5 L 5,1 L 2.5,-1.5 L 3,-5 L 0,-3 L -3,-5 L -2.5,-1.5 L -5,1 L -1.5,1.5 Z" fill="#FFDE00"/></g>
    <g transform="translate(90, 100)"><path d="M 0,5 L 1.5,1.5 L 5,1 L 2.5,-1.5 L 3,-5 L 0,-3 L -3,-5 L -2.5,-1.5 L -5,1 L -1.5,1.5 Z" fill="#FFDE00"/></g>
    <text x="130" y="180" text-anchor="middle" font-family="Arial Black" font-size="42" font-weight="900" fill="#FFDE00" stroke="#DE2910" stroke-width="1.5">中文</text>
</svg>