<?xml version="1.0" encoding="UTF-8"?>
<svg width="260" height="260" viewBox="0 0 260 260" xmlns="http://www.w3.org/2000/svg">
    <defs>
        <linearGradient id="espGradient" x1="0%" y1="0%" x2="0%" y2="100%">
            <stop offset="0%" style="stop-color:#C60B1E;stop-opacity:1" />
            <stop offset="25%" style="stop-color:#C60B1E;stop-opacity:1" />
            <stop offset="25%" style="stop-color:#FFC400;stop-opacity:1" />
            <stop offset="75%" style="stop-color:#FFC400;stop-opacity:1" />
            <stop offset="75%" style="stop-color:#C60B1E;stop-opacity:1" />
            <stop offset="100%" style="stop-color:#C60B1E;stop-opacity:1" />
        </linearGradient>
    </defs>
    <path d="M 50 50 L 105 50 C 105 50, 105 30, 130 30 C 155 30, 155 50, 155 50 L 210 50 L 210 105 C 210 105, 190 105, 190 130 C 190 155, 210 155, 210 155 L 210 210 L 155 210 C 155 210, 155 230, 130 230 C 105 230, 105 210, 105 210 L 50 210 L 50 155 C 50 155, 30 155, 30 130 C 30 105, 50 105, 50 105 Z"
          fill="url(#espGradient)" stroke="white" stroke-width="3"/>
    <text x="130" y="180" text-anchor="middle" font-family="Arial Black" font-size="42" font-weight="900" fill="white" stroke="#C60B1E" stroke-width="1">ESP</text>
</svg>