<?xml version="1.0" encoding="UTF-8"?>
<svg width="260" height="260" viewBox="0 0 260 260" xmlns="http://www.w3.org/2000/svg">
    <defs>
        <linearGradient id="rusGradient" x1="0%" y1="0%" x2="0%" y2="100%">
            <stop offset="0%" style="stop-color:#ffffff;stop-opacity:1" />
            <stop offset="33%" style="stop-color:#ffffff;stop-opacity:1" />
            <stop offset="33%" style="stop-color:#0039A6;stop-opacity:1" />
            <stop offset="66%" style="stop-color:#0039A6;stop-opacity:1" />
            <stop offset="66%" style="stop-color:#D52B1E;stop-opacity:1" />
            <stop offset="100%" style="stop-color:#D52B1E;stop-opacity:1" />
        </linearGradient>
    </defs>
    <path d="M 50 50 L 105 50 C 105 50, 105 70, 130 70 C 155 70, 155 50, 155 50 L 210 50 L 210 105 C 210 105, 230 105, 230 130 C 230 155, 210 155, 210 155 L 210 210 L 155 210 C 155 210, 155 190, 130 190 C 105 190, 105 210, 105 210 L 50 210 L 50 155 C 50 155, 70 155, 70 130 C 70 105, 50 105, 50 105 Z"
          fill="url(#rusGradient)" stroke="white" stroke-width="3"/>
    <text x="130" y="180" text-anchor="middle" font-family="Arial Black" font-size="42" font-weight="900" fill="white" stroke="#0039A6" stroke-width="1">РУС</text>
</svg>